<mxfile host="app.diagrams.net" agent="Mozilla/5.0 (Windows NT 10.0; Win64; x64) AppleWebKit/537.36 (KHTML, like Gecko) Chrome/141.0.0.0 Safari/537.36" version="28.2.8">
  <diagram name="PÃ¡gina-1" id="6ys8DDzp9iVc7kTVz8hY">
    <mxGraphModel dx="3249" dy="2499" grid="1" gridSize="10" guides="1" tooltips="1" connect="1" arrows="1" fold="1" page="1" pageScale="1" pageWidth="827" pageHeight="1169" math="0" shadow="0">
      <root>
        <mxCell id="0" />
        <mxCell id="1" parent="0" />
        <mxCell id="CUxQa2ygbQsc2UmDLdxc-13" style="edgeStyle=orthogonalEdgeStyle;rounded=0;orthogonalLoop=1;jettySize=auto;html=1;entryX=0;entryY=0.5;entryDx=0;entryDy=0;" edge="1" parent="1" source="CUxQa2ygbQsc2UmDLdxc-1" target="CUxQa2ygbQsc2UmDLdxc-12">
          <mxGeometry relative="1" as="geometry" />
        </mxCell>
        <mxCell id="CUxQa2ygbQsc2UmDLdxc-15" style="edgeStyle=orthogonalEdgeStyle;rounded=0;orthogonalLoop=1;jettySize=auto;html=1;entryX=0.5;entryY=0;entryDx=0;entryDy=0;" edge="1" parent="1" source="CUxQa2ygbQsc2UmDLdxc-1" target="CUxQa2ygbQsc2UmDLdxc-16">
          <mxGeometry relative="1" as="geometry">
            <mxPoint x="170" y="330" as="targetPoint" />
            <Array as="points">
              <mxPoint x="110" y="170" />
              <mxPoint x="110" y="300" />
              <mxPoint x="190" y="300" />
              <mxPoint x="190" y="330" />
            </Array>
          </mxGeometry>
        </mxCell>
        <mxCell id="CUxQa2ygbQsc2UmDLdxc-1" value="Sucursal" style="rounded=0;whiteSpace=wrap;html=1;fillColor=#f8cecc;strokeColor=#b85450;" vertex="1" parent="1">
          <mxGeometry x="-210" y="50" width="120" height="60" as="geometry" />
        </mxCell>
        <mxCell id="CUxQa2ygbQsc2UmDLdxc-19" style="edgeStyle=orthogonalEdgeStyle;rounded=0;orthogonalLoop=1;jettySize=auto;html=1;entryX=0.5;entryY=0;entryDx=0;entryDy=0;" edge="1" parent="1" source="CUxQa2ygbQsc2UmDLdxc-3" target="CUxQa2ygbQsc2UmDLdxc-18">
          <mxGeometry relative="1" as="geometry" />
        </mxCell>
        <mxCell id="CUxQa2ygbQsc2UmDLdxc-3" value="Cliente" style="rounded=0;whiteSpace=wrap;html=1;fillColor=#f8cecc;strokeColor=#b85450;" vertex="1" parent="1">
          <mxGeometry x="120" y="60" width="120" height="60" as="geometry" />
        </mxCell>
        <mxCell id="CUxQa2ygbQsc2UmDLdxc-30" style="edgeStyle=orthogonalEdgeStyle;rounded=0;orthogonalLoop=1;jettySize=auto;html=1;entryX=0;entryY=0.5;entryDx=0;entryDy=0;" edge="1" parent="1" source="CUxQa2ygbQsc2UmDLdxc-4" target="CUxQa2ygbQsc2UmDLdxc-29">
          <mxGeometry relative="1" as="geometry">
            <Array as="points">
              <mxPoint x="20" y="480" />
              <mxPoint x="20" y="370" />
              <mxPoint x="210" y="370" />
            </Array>
          </mxGeometry>
        </mxCell>
        <mxCell id="CUxQa2ygbQsc2UmDLdxc-4" value="Marca" style="rounded=0;whiteSpace=wrap;html=1;fillColor=#f8cecc;strokeColor=#b85450;" vertex="1" parent="1">
          <mxGeometry x="-270" y="460" width="120" height="60" as="geometry" />
        </mxCell>
        <mxCell id="CUxQa2ygbQsc2UmDLdxc-33" style="edgeStyle=orthogonalEdgeStyle;rounded=0;orthogonalLoop=1;jettySize=auto;html=1;entryX=0.5;entryY=0;entryDx=0;entryDy=0;" edge="1" parent="1" source="CUxQa2ygbQsc2UmDLdxc-5" target="CUxQa2ygbQsc2UmDLdxc-32">
          <mxGeometry relative="1" as="geometry" />
        </mxCell>
        <mxCell id="CUxQa2ygbQsc2UmDLdxc-5" value="Detalle" style="rounded=0;whiteSpace=wrap;html=1;fillColor=#f8cecc;strokeColor=#b85450;" vertex="1" parent="1">
          <mxGeometry x="870" width="120" height="60" as="geometry" />
        </mxCell>
        <mxCell id="CUxQa2ygbQsc2UmDLdxc-45" style="edgeStyle=orthogonalEdgeStyle;rounded=0;orthogonalLoop=1;jettySize=auto;html=1;entryX=0;entryY=0.5;entryDx=0;entryDy=0;" edge="1" parent="1" source="CUxQa2ygbQsc2UmDLdxc-7" target="CUxQa2ygbQsc2UmDLdxc-46">
          <mxGeometry relative="1" as="geometry">
            <mxPoint x="440" y="250" as="targetPoint" />
            <Array as="points">
              <mxPoint x="110" y="520" />
              <mxPoint x="430" y="520" />
              <mxPoint x="430" y="260" />
            </Array>
          </mxGeometry>
        </mxCell>
        <mxCell id="CUxQa2ygbQsc2UmDLdxc-7" value="Venta" style="rounded=0;whiteSpace=wrap;html=1;fillColor=#f8cecc;strokeColor=#b85450;" vertex="1" parent="1">
          <mxGeometry y="640" width="120" height="60" as="geometry" />
        </mxCell>
        <mxCell id="CUxQa2ygbQsc2UmDLdxc-27" style="edgeStyle=orthogonalEdgeStyle;rounded=0;orthogonalLoop=1;jettySize=auto;html=1;" edge="1" parent="1" source="CUxQa2ygbQsc2UmDLdxc-8" target="CUxQa2ygbQsc2UmDLdxc-26">
          <mxGeometry relative="1" as="geometry" />
        </mxCell>
        <mxCell id="CUxQa2ygbQsc2UmDLdxc-8" value="Categoria" style="rounded=0;whiteSpace=wrap;html=1;fillColor=#f8cecc;strokeColor=#b85450;" vertex="1" parent="1">
          <mxGeometry x="480" y="40" width="120" height="60" as="geometry" />
        </mxCell>
        <mxCell id="CUxQa2ygbQsc2UmDLdxc-43" style="edgeStyle=orthogonalEdgeStyle;rounded=0;orthogonalLoop=1;jettySize=auto;html=1;entryX=0.5;entryY=1;entryDx=0;entryDy=0;" edge="1" parent="1" source="CUxQa2ygbQsc2UmDLdxc-9" target="CUxQa2ygbQsc2UmDLdxc-42">
          <mxGeometry relative="1" as="geometry">
            <Array as="points">
              <mxPoint x="790" y="483" />
              <mxPoint x="815" y="483" />
            </Array>
          </mxGeometry>
        </mxCell>
        <mxCell id="CUxQa2ygbQsc2UmDLdxc-9" value="Producto" style="rounded=0;whiteSpace=wrap;html=1;fillColor=#f8cecc;strokeColor=#b85450;" vertex="1" parent="1">
          <mxGeometry x="750" y="615" width="120" height="60" as="geometry" />
        </mxCell>
        <mxCell id="CUxQa2ygbQsc2UmDLdxc-40" style="edgeStyle=orthogonalEdgeStyle;rounded=0;orthogonalLoop=1;jettySize=auto;html=1;entryX=0.5;entryY=1;entryDx=0;entryDy=0;" edge="1" parent="1" source="CUxQa2ygbQsc2UmDLdxc-10" target="CUxQa2ygbQsc2UmDLdxc-39">
          <mxGeometry relative="1" as="geometry" />
        </mxCell>
        <mxCell id="CUxQa2ygbQsc2UmDLdxc-10" value="Compra" style="rounded=0;whiteSpace=wrap;html=1;fillColor=#f8cecc;strokeColor=#b85450;" vertex="1" parent="1">
          <mxGeometry x="370" y="680" width="120" height="60" as="geometry" />
        </mxCell>
        <mxCell id="CUxQa2ygbQsc2UmDLdxc-14" style="edgeStyle=orthogonalEdgeStyle;rounded=0;orthogonalLoop=1;jettySize=auto;html=1;entryX=0.25;entryY=0;entryDx=0;entryDy=0;" edge="1" parent="1" source="CUxQa2ygbQsc2UmDLdxc-12" target="CUxQa2ygbQsc2UmDLdxc-7">
          <mxGeometry relative="1" as="geometry" />
        </mxCell>
        <mxCell id="CUxQa2ygbQsc2UmDLdxc-12" value="Tiene" style="rhombus;whiteSpace=wrap;html=1;fillColor=#fff2cc;strokeColor=#d6b656;" vertex="1" parent="1">
          <mxGeometry x="-115" y="310" width="90" height="40" as="geometry" />
        </mxCell>
        <mxCell id="CUxQa2ygbQsc2UmDLdxc-17" style="edgeStyle=orthogonalEdgeStyle;rounded=0;orthogonalLoop=1;jettySize=auto;html=1;entryX=1;entryY=0.25;entryDx=0;entryDy=0;" edge="1" parent="1" source="CUxQa2ygbQsc2UmDLdxc-16" target="CUxQa2ygbQsc2UmDLdxc-10">
          <mxGeometry relative="1" as="geometry">
            <Array as="points">
              <mxPoint x="195" y="410" />
              <mxPoint x="414" y="410" />
              <mxPoint x="414" y="570" />
            </Array>
          </mxGeometry>
        </mxCell>
        <mxCell id="CUxQa2ygbQsc2UmDLdxc-16" value="Tiene" style="rhombus;whiteSpace=wrap;html=1;fillColor=#fff2cc;strokeColor=#d6b656;" vertex="1" parent="1">
          <mxGeometry x="140" y="310" width="90" height="40" as="geometry" />
        </mxCell>
        <mxCell id="CUxQa2ygbQsc2UmDLdxc-20" style="edgeStyle=orthogonalEdgeStyle;rounded=0;orthogonalLoop=1;jettySize=auto;html=1;entryX=0.5;entryY=0;entryDx=0;entryDy=0;" edge="1" parent="1" source="CUxQa2ygbQsc2UmDLdxc-18" target="CUxQa2ygbQsc2UmDLdxc-7">
          <mxGeometry relative="1" as="geometry" />
        </mxCell>
        <mxCell id="CUxQa2ygbQsc2UmDLdxc-18" value="Tiene" style="rhombus;whiteSpace=wrap;html=1;fillColor=#fff2cc;strokeColor=#d6b656;" vertex="1" parent="1">
          <mxGeometry y="250" width="90" height="40" as="geometry" />
        </mxCell>
        <mxCell id="CUxQa2ygbQsc2UmDLdxc-23" style="edgeStyle=orthogonalEdgeStyle;rounded=0;orthogonalLoop=1;jettySize=auto;html=1;entryX=0.5;entryY=0;entryDx=0;entryDy=0;" edge="1" parent="1" source="CUxQa2ygbQsc2UmDLdxc-21" target="CUxQa2ygbQsc2UmDLdxc-22">
          <mxGeometry relative="1" as="geometry" />
        </mxCell>
        <mxCell id="CUxQa2ygbQsc2UmDLdxc-21" value="Proveedor" style="rounded=0;whiteSpace=wrap;html=1;fillColor=#f8cecc;strokeColor=#b85450;" vertex="1" parent="1">
          <mxGeometry x="930" y="300" width="120" height="60" as="geometry" />
        </mxCell>
        <mxCell id="CUxQa2ygbQsc2UmDLdxc-24" style="edgeStyle=orthogonalEdgeStyle;rounded=0;orthogonalLoop=1;jettySize=auto;html=1;entryX=0.75;entryY=0;entryDx=0;entryDy=0;" edge="1" parent="1" source="CUxQa2ygbQsc2UmDLdxc-22" target="CUxQa2ygbQsc2UmDLdxc-10">
          <mxGeometry relative="1" as="geometry">
            <Array as="points">
              <mxPoint x="595" y="360" />
              <mxPoint x="380" y="360" />
              <mxPoint x="380" y="585" />
            </Array>
          </mxGeometry>
        </mxCell>
        <mxCell id="CUxQa2ygbQsc2UmDLdxc-22" value="Tiene" style="rhombus;whiteSpace=wrap;html=1;fillColor=#fff2cc;strokeColor=#d6b656;" vertex="1" parent="1">
          <mxGeometry x="550" y="310" width="90" height="40" as="geometry" />
        </mxCell>
        <mxCell id="CUxQa2ygbQsc2UmDLdxc-28" style="edgeStyle=orthogonalEdgeStyle;rounded=0;orthogonalLoop=1;jettySize=auto;html=1;entryX=0;entryY=0.5;entryDx=0;entryDy=0;" edge="1" parent="1" source="CUxQa2ygbQsc2UmDLdxc-26" target="CUxQa2ygbQsc2UmDLdxc-9">
          <mxGeometry relative="1" as="geometry" />
        </mxCell>
        <mxCell id="CUxQa2ygbQsc2UmDLdxc-26" value="Tiene" style="rhombus;whiteSpace=wrap;html=1;fillColor=#fff2cc;strokeColor=#d6b656;" vertex="1" parent="1">
          <mxGeometry x="300" y="320" width="90" height="40" as="geometry" />
        </mxCell>
        <mxCell id="CUxQa2ygbQsc2UmDLdxc-31" style="edgeStyle=orthogonalEdgeStyle;rounded=0;orthogonalLoop=1;jettySize=auto;html=1;entryX=0.25;entryY=0;entryDx=0;entryDy=0;" edge="1" parent="1" source="CUxQa2ygbQsc2UmDLdxc-29" target="CUxQa2ygbQsc2UmDLdxc-9">
          <mxGeometry relative="1" as="geometry">
            <Array as="points">
              <mxPoint x="780" y="400" />
            </Array>
          </mxGeometry>
        </mxCell>
        <mxCell id="CUxQa2ygbQsc2UmDLdxc-29" value="Tiene" style="rhombus;whiteSpace=wrap;html=1;fillColor=#fff2cc;strokeColor=#d6b656;" vertex="1" parent="1">
          <mxGeometry x="230" y="360" width="90" height="40" as="geometry" />
        </mxCell>
        <mxCell id="CUxQa2ygbQsc2UmDLdxc-34" style="edgeStyle=orthogonalEdgeStyle;rounded=0;orthogonalLoop=1;jettySize=auto;html=1;" edge="1" parent="1" source="CUxQa2ygbQsc2UmDLdxc-32" target="CUxQa2ygbQsc2UmDLdxc-9">
          <mxGeometry relative="1" as="geometry" />
        </mxCell>
        <mxCell id="CUxQa2ygbQsc2UmDLdxc-32" value="Tiene" style="rhombus;whiteSpace=wrap;html=1;fillColor=#fff2cc;strokeColor=#d6b656;" vertex="1" parent="1">
          <mxGeometry x="660" y="340" width="90" height="40" as="geometry" />
        </mxCell>
        <mxCell id="CUxQa2ygbQsc2UmDLdxc-41" style="edgeStyle=orthogonalEdgeStyle;rounded=0;orthogonalLoop=1;jettySize=auto;html=1;entryX=0;entryY=0.5;entryDx=0;entryDy=0;" edge="1" parent="1" source="CUxQa2ygbQsc2UmDLdxc-39" target="CUxQa2ygbQsc2UmDLdxc-5">
          <mxGeometry relative="1" as="geometry">
            <Array as="points">
              <mxPoint x="485" y="310" />
              <mxPoint x="575" y="310" />
              <mxPoint x="575" y="180" />
            </Array>
          </mxGeometry>
        </mxCell>
        <mxCell id="CUxQa2ygbQsc2UmDLdxc-39" value="Tiene" style="rhombus;whiteSpace=wrap;html=1;fillColor=#fff2cc;strokeColor=#d6b656;" vertex="1" parent="1">
          <mxGeometry x="440" y="420" width="90" height="40" as="geometry" />
        </mxCell>
        <mxCell id="CUxQa2ygbQsc2UmDLdxc-44" style="edgeStyle=orthogonalEdgeStyle;rounded=0;orthogonalLoop=1;jettySize=auto;html=1;entryX=1;entryY=0.5;entryDx=0;entryDy=0;" edge="1" parent="1" source="CUxQa2ygbQsc2UmDLdxc-42" target="CUxQa2ygbQsc2UmDLdxc-5">
          <mxGeometry relative="1" as="geometry">
            <Array as="points">
              <mxPoint x="815" y="320" />
              <mxPoint x="800" y="320" />
              <mxPoint x="800" y="290" />
              <mxPoint x="760" y="290" />
              <mxPoint x="760" y="150" />
              <mxPoint x="990" y="150" />
            </Array>
          </mxGeometry>
        </mxCell>
        <mxCell id="CUxQa2ygbQsc2UmDLdxc-42" value="Tiene" style="rhombus;whiteSpace=wrap;html=1;fillColor=#fff2cc;strokeColor=#d6b656;" vertex="1" parent="1">
          <mxGeometry x="770" y="370" width="90" height="40" as="geometry" />
        </mxCell>
        <mxCell id="CUxQa2ygbQsc2UmDLdxc-47" style="edgeStyle=orthogonalEdgeStyle;rounded=0;orthogonalLoop=1;jettySize=auto;html=1;entryX=0.25;entryY=1;entryDx=0;entryDy=0;" edge="1" parent="1" source="CUxQa2ygbQsc2UmDLdxc-46" target="CUxQa2ygbQsc2UmDLdxc-5">
          <mxGeometry relative="1" as="geometry" />
        </mxCell>
        <mxCell id="CUxQa2ygbQsc2UmDLdxc-46" value="Tiene" style="rhombus;whiteSpace=wrap;html=1;fillColor=#fff2cc;strokeColor=#d6b656;" vertex="1" parent="1">
          <mxGeometry x="450" y="240" width="90" height="40" as="geometry" />
        </mxCell>
        <mxCell id="CUxQa2ygbQsc2UmDLdxc-55" style="edgeStyle=orthogonalEdgeStyle;rounded=0;orthogonalLoop=1;jettySize=auto;html=1;entryX=0;entryY=0.25;entryDx=0;entryDy=0;" edge="1" parent="1" source="CUxQa2ygbQsc2UmDLdxc-48" target="CUxQa2ygbQsc2UmDLdxc-1">
          <mxGeometry relative="1" as="geometry" />
        </mxCell>
        <mxCell id="CUxQa2ygbQsc2UmDLdxc-48" value="direccion" style="ellipse;whiteSpace=wrap;html=1;fillColor=#dae8fc;strokeColor=#6c8ebf;" vertex="1" parent="1">
          <mxGeometry x="-390" y="10" width="90" height="40" as="geometry" />
        </mxCell>
        <mxCell id="CUxQa2ygbQsc2UmDLdxc-51" value="nombre" style="ellipse;whiteSpace=wrap;html=1;fillColor=#dae8fc;strokeColor=#6c8ebf;" vertex="1" parent="1">
          <mxGeometry x="-210" y="-130" width="90" height="40" as="geometry" />
        </mxCell>
        <mxCell id="CUxQa2ygbQsc2UmDLdxc-54" style="edgeStyle=orthogonalEdgeStyle;rounded=0;orthogonalLoop=1;jettySize=auto;html=1;entryX=0;entryY=0.75;entryDx=0;entryDy=0;" edge="1" parent="1" source="CUxQa2ygbQsc2UmDLdxc-52" target="CUxQa2ygbQsc2UmDLdxc-1">
          <mxGeometry relative="1" as="geometry" />
        </mxCell>
        <mxCell id="CUxQa2ygbQsc2UmDLdxc-52" value="telefono" style="ellipse;whiteSpace=wrap;html=1;fillColor=#dae8fc;strokeColor=#6c8ebf;" vertex="1" parent="1">
          <mxGeometry x="-390" y="120" width="90" height="40" as="geometry" />
        </mxCell>
        <mxCell id="CUxQa2ygbQsc2UmDLdxc-53" value="id_sucursal" style="ellipse;whiteSpace=wrap;html=1;fillColor=#dae8fc;strokeColor=#6c8ebf;" vertex="1" parent="1">
          <mxGeometry x="-380" y="-120" width="90" height="40" as="geometry" />
        </mxCell>
        <mxCell id="CUxQa2ygbQsc2UmDLdxc-56" style="edgeStyle=orthogonalEdgeStyle;rounded=0;orthogonalLoop=1;jettySize=auto;html=1;entryX=0.177;entryY=-0.022;entryDx=0;entryDy=0;entryPerimeter=0;" edge="1" parent="1" source="CUxQa2ygbQsc2UmDLdxc-53" target="CUxQa2ygbQsc2UmDLdxc-1">
          <mxGeometry relative="1" as="geometry">
            <Array as="points">
              <mxPoint x="-335" y="-40" />
              <mxPoint x="-189" y="-40" />
            </Array>
          </mxGeometry>
        </mxCell>
        <mxCell id="CUxQa2ygbQsc2UmDLdxc-57" style="edgeStyle=orthogonalEdgeStyle;rounded=0;orthogonalLoop=1;jettySize=auto;html=1;entryX=0.653;entryY=-0.054;entryDx=0;entryDy=0;entryPerimeter=0;" edge="1" parent="1" source="CUxQa2ygbQsc2UmDLdxc-51" target="CUxQa2ygbQsc2UmDLdxc-1">
          <mxGeometry relative="1" as="geometry" />
        </mxCell>
        <mxCell id="CUxQa2ygbQsc2UmDLdxc-64" style="edgeStyle=orthogonalEdgeStyle;rounded=0;orthogonalLoop=1;jettySize=auto;html=1;entryX=0;entryY=0.25;entryDx=0;entryDy=0;" edge="1" parent="1" source="CUxQa2ygbQsc2UmDLdxc-58" target="CUxQa2ygbQsc2UmDLdxc-3">
          <mxGeometry relative="1" as="geometry" />
        </mxCell>
        <mxCell id="CUxQa2ygbQsc2UmDLdxc-58" value="id_cliente" style="ellipse;whiteSpace=wrap;html=1;fillColor=#dae8fc;strokeColor=#6c8ebf;" vertex="1" parent="1">
          <mxGeometry x="-25" y="-20" width="90" height="40" as="geometry" />
        </mxCell>
        <mxCell id="CUxQa2ygbQsc2UmDLdxc-65" style="edgeStyle=orthogonalEdgeStyle;rounded=0;orthogonalLoop=1;jettySize=auto;html=1;entryX=0.25;entryY=0;entryDx=0;entryDy=0;" edge="1" parent="1" source="CUxQa2ygbQsc2UmDLdxc-59" target="CUxQa2ygbQsc2UmDLdxc-3">
          <mxGeometry relative="1" as="geometry">
            <Array as="points">
              <mxPoint x="25" y="-50" />
              <mxPoint x="150" y="-50" />
            </Array>
          </mxGeometry>
        </mxCell>
        <mxCell id="CUxQa2ygbQsc2UmDLdxc-59" value="nombre" style="ellipse;whiteSpace=wrap;html=1;fillColor=#dae8fc;strokeColor=#6c8ebf;" vertex="1" parent="1">
          <mxGeometry x="-20" y="-120" width="90" height="40" as="geometry" />
        </mxCell>
        <mxCell id="CUxQa2ygbQsc2UmDLdxc-66" style="edgeStyle=orthogonalEdgeStyle;rounded=0;orthogonalLoop=1;jettySize=auto;html=1;" edge="1" parent="1" source="CUxQa2ygbQsc2UmDLdxc-60" target="CUxQa2ygbQsc2UmDLdxc-3">
          <mxGeometry relative="1" as="geometry">
            <Array as="points">
              <mxPoint x="145" y="-70" />
              <mxPoint x="180" y="-70" />
            </Array>
          </mxGeometry>
        </mxCell>
        <mxCell id="CUxQa2ygbQsc2UmDLdxc-60" value="direccion" style="ellipse;whiteSpace=wrap;html=1;fillColor=#dae8fc;strokeColor=#6c8ebf;" vertex="1" parent="1">
          <mxGeometry x="100" y="-190" width="90" height="40" as="geometry" />
        </mxCell>
        <mxCell id="CUxQa2ygbQsc2UmDLdxc-68" style="edgeStyle=orthogonalEdgeStyle;rounded=0;orthogonalLoop=1;jettySize=auto;html=1;entryX=1;entryY=0.25;entryDx=0;entryDy=0;" edge="1" parent="1" source="CUxQa2ygbQsc2UmDLdxc-61" target="CUxQa2ygbQsc2UmDLdxc-3">
          <mxGeometry relative="1" as="geometry">
            <Array as="points">
              <mxPoint x="300" y="-120" />
              <mxPoint x="300" y="75" />
            </Array>
          </mxGeometry>
        </mxCell>
        <mxCell id="CUxQa2ygbQsc2UmDLdxc-61" value="correo" style="ellipse;whiteSpace=wrap;html=1;fillColor=#dae8fc;strokeColor=#6c8ebf;" vertex="1" parent="1">
          <mxGeometry x="330" y="-140" width="90" height="40" as="geometry" />
        </mxCell>
        <mxCell id="CUxQa2ygbQsc2UmDLdxc-69" style="edgeStyle=orthogonalEdgeStyle;rounded=0;orthogonalLoop=1;jettySize=auto;html=1;entryX=1;entryY=0.75;entryDx=0;entryDy=0;" edge="1" parent="1" source="CUxQa2ygbQsc2UmDLdxc-62" target="CUxQa2ygbQsc2UmDLdxc-3">
          <mxGeometry relative="1" as="geometry">
            <Array as="points">
              <mxPoint x="330" y="105" />
            </Array>
          </mxGeometry>
        </mxCell>
        <mxCell id="CUxQa2ygbQsc2UmDLdxc-62" value="tipo_cliente" style="ellipse;whiteSpace=wrap;html=1;fillColor=#dae8fc;strokeColor=#6c8ebf;" vertex="1" parent="1">
          <mxGeometry x="310" y="-30" width="90" height="40" as="geometry" />
        </mxCell>
        <mxCell id="CUxQa2ygbQsc2UmDLdxc-67" style="edgeStyle=orthogonalEdgeStyle;rounded=0;orthogonalLoop=1;jettySize=auto;html=1;entryX=0.75;entryY=0;entryDx=0;entryDy=0;" edge="1" parent="1" source="CUxQa2ygbQsc2UmDLdxc-63" target="CUxQa2ygbQsc2UmDLdxc-3">
          <mxGeometry relative="1" as="geometry" />
        </mxCell>
        <mxCell id="CUxQa2ygbQsc2UmDLdxc-63" value="telefono" style="ellipse;whiteSpace=wrap;html=1;fillColor=#dae8fc;strokeColor=#6c8ebf;" vertex="1" parent="1">
          <mxGeometry x="230" y="-190" width="90" height="40" as="geometry" />
        </mxCell>
        <mxCell id="CUxQa2ygbQsc2UmDLdxc-70" value="id_categoria" style="ellipse;whiteSpace=wrap;html=1;fillColor=#dae8fc;strokeColor=#6c8ebf;" vertex="1" parent="1">
          <mxGeometry x="470" y="-140" width="90" height="40" as="geometry" />
        </mxCell>
        <mxCell id="CUxQa2ygbQsc2UmDLdxc-74" style="edgeStyle=orthogonalEdgeStyle;rounded=0;orthogonalLoop=1;jettySize=auto;html=1;entryX=0.75;entryY=0;entryDx=0;entryDy=0;" edge="1" parent="1" source="CUxQa2ygbQsc2UmDLdxc-71" target="CUxQa2ygbQsc2UmDLdxc-8">
          <mxGeometry relative="1" as="geometry" />
        </mxCell>
        <mxCell id="CUxQa2ygbQsc2UmDLdxc-71" value="nombre" style="ellipse;whiteSpace=wrap;html=1;fillColor=#dae8fc;strokeColor=#6c8ebf;" vertex="1" parent="1">
          <mxGeometry x="630" y="-120" width="90" height="40" as="geometry" />
        </mxCell>
        <mxCell id="CUxQa2ygbQsc2UmDLdxc-75" style="edgeStyle=orthogonalEdgeStyle;rounded=0;orthogonalLoop=1;jettySize=auto;html=1;entryX=1;entryY=0.5;entryDx=0;entryDy=0;" edge="1" parent="1" source="CUxQa2ygbQsc2UmDLdxc-72" target="CUxQa2ygbQsc2UmDLdxc-8">
          <mxGeometry relative="1" as="geometry" />
        </mxCell>
        <mxCell id="CUxQa2ygbQsc2UmDLdxc-72" value="decripcion" style="ellipse;whiteSpace=wrap;html=1;fillColor=#dae8fc;strokeColor=#6c8ebf;" vertex="1" parent="1">
          <mxGeometry x="690" y="-20" width="90" height="40" as="geometry" />
        </mxCell>
        <mxCell id="CUxQa2ygbQsc2UmDLdxc-73" style="edgeStyle=orthogonalEdgeStyle;rounded=0;orthogonalLoop=1;jettySize=auto;html=1;entryX=0.34;entryY=0.017;entryDx=0;entryDy=0;entryPerimeter=0;" edge="1" parent="1" source="CUxQa2ygbQsc2UmDLdxc-70" target="CUxQa2ygbQsc2UmDLdxc-8">
          <mxGeometry relative="1" as="geometry" />
        </mxCell>
        <mxCell id="CUxQa2ygbQsc2UmDLdxc-76" value="id_marca" style="ellipse;whiteSpace=wrap;html=1;fillColor=#dae8fc;strokeColor=#6c8ebf;" vertex="1" parent="1">
          <mxGeometry x="-370" y="290" width="90" height="40" as="geometry" />
        </mxCell>
        <mxCell id="CUxQa2ygbQsc2UmDLdxc-80" style="edgeStyle=orthogonalEdgeStyle;rounded=0;orthogonalLoop=1;jettySize=auto;html=1;entryX=0;entryY=0.5;entryDx=0;entryDy=0;" edge="1" parent="1" source="CUxQa2ygbQsc2UmDLdxc-77" target="CUxQa2ygbQsc2UmDLdxc-4">
          <mxGeometry relative="1" as="geometry" />
        </mxCell>
        <mxCell id="CUxQa2ygbQsc2UmDLdxc-77" value="nombre" style="ellipse;whiteSpace=wrap;html=1;fillColor=#dae8fc;strokeColor=#6c8ebf;" vertex="1" parent="1">
          <mxGeometry x="-490" y="500" width="90" height="40" as="geometry" />
        </mxCell>
        <mxCell id="CUxQa2ygbQsc2UmDLdxc-81" style="edgeStyle=orthogonalEdgeStyle;rounded=0;orthogonalLoop=1;jettySize=auto;html=1;entryX=0.5;entryY=1;entryDx=0;entryDy=0;" edge="1" parent="1" source="CUxQa2ygbQsc2UmDLdxc-78" target="CUxQa2ygbQsc2UmDLdxc-4">
          <mxGeometry relative="1" as="geometry" />
        </mxCell>
        <mxCell id="CUxQa2ygbQsc2UmDLdxc-78" value="pais_origen" style="ellipse;whiteSpace=wrap;html=1;fillColor=#dae8fc;strokeColor=#6c8ebf;" vertex="1" parent="1">
          <mxGeometry x="-410" y="615" width="110" height="50" as="geometry" />
        </mxCell>
        <mxCell id="CUxQa2ygbQsc2UmDLdxc-79" style="edgeStyle=orthogonalEdgeStyle;rounded=0;orthogonalLoop=1;jettySize=auto;html=1;entryX=0.352;entryY=0.017;entryDx=0;entryDy=0;entryPerimeter=0;" edge="1" parent="1" source="CUxQa2ygbQsc2UmDLdxc-76" target="CUxQa2ygbQsc2UmDLdxc-4">
          <mxGeometry relative="1" as="geometry" />
        </mxCell>
        <mxCell id="CUxQa2ygbQsc2UmDLdxc-90" style="edgeStyle=orthogonalEdgeStyle;rounded=0;orthogonalLoop=1;jettySize=auto;html=1;entryX=0;entryY=0.25;entryDx=0;entryDy=0;" edge="1" parent="1" source="CUxQa2ygbQsc2UmDLdxc-83" target="CUxQa2ygbQsc2UmDLdxc-7">
          <mxGeometry relative="1" as="geometry" />
        </mxCell>
        <mxCell id="CUxQa2ygbQsc2UmDLdxc-83" value="id_venta" style="ellipse;whiteSpace=wrap;html=1;fillColor=#dae8fc;strokeColor=#6c8ebf;" vertex="1" parent="1">
          <mxGeometry x="-180" y="580" width="90" height="40" as="geometry" />
        </mxCell>
        <mxCell id="CUxQa2ygbQsc2UmDLdxc-91" style="edgeStyle=orthogonalEdgeStyle;rounded=0;orthogonalLoop=1;jettySize=auto;html=1;entryX=0;entryY=0.5;entryDx=0;entryDy=0;" edge="1" parent="1" source="CUxQa2ygbQsc2UmDLdxc-84" target="CUxQa2ygbQsc2UmDLdxc-7">
          <mxGeometry relative="1" as="geometry" />
        </mxCell>
        <mxCell id="CUxQa2ygbQsc2UmDLdxc-84" value="fecha" style="ellipse;whiteSpace=wrap;html=1;fillColor=#dae8fc;strokeColor=#6c8ebf;" vertex="1" parent="1">
          <mxGeometry x="-205" y="705" width="90" height="40" as="geometry" />
        </mxCell>
        <mxCell id="CUxQa2ygbQsc2UmDLdxc-92" style="edgeStyle=orthogonalEdgeStyle;rounded=0;orthogonalLoop=1;jettySize=auto;html=1;entryX=0.25;entryY=1;entryDx=0;entryDy=0;" edge="1" parent="1" source="CUxQa2ygbQsc2UmDLdxc-85" target="CUxQa2ygbQsc2UmDLdxc-7">
          <mxGeometry relative="1" as="geometry">
            <Array as="points">
              <mxPoint x="-125" y="790" />
              <mxPoint x="30" y="790" />
            </Array>
          </mxGeometry>
        </mxCell>
        <mxCell id="CUxQa2ygbQsc2UmDLdxc-85" value="subtotal" style="ellipse;whiteSpace=wrap;html=1;fillColor=#dae8fc;strokeColor=#6c8ebf;" vertex="1" parent="1">
          <mxGeometry x="-170" y="830" width="90" height="40" as="geometry" />
        </mxCell>
        <mxCell id="CUxQa2ygbQsc2UmDLdxc-93" style="edgeStyle=orthogonalEdgeStyle;rounded=0;orthogonalLoop=1;jettySize=auto;html=1;entryX=0.5;entryY=1;entryDx=0;entryDy=0;" edge="1" parent="1" source="CUxQa2ygbQsc2UmDLdxc-86" target="CUxQa2ygbQsc2UmDLdxc-7">
          <mxGeometry relative="1" as="geometry" />
        </mxCell>
        <mxCell id="CUxQa2ygbQsc2UmDLdxc-86" value="desceunto" style="ellipse;whiteSpace=wrap;html=1;fillColor=#dae8fc;strokeColor=#6c8ebf;" vertex="1" parent="1">
          <mxGeometry y="880" width="90" height="40" as="geometry" />
        </mxCell>
        <mxCell id="CUxQa2ygbQsc2UmDLdxc-94" style="edgeStyle=orthogonalEdgeStyle;rounded=0;orthogonalLoop=1;jettySize=auto;html=1;entryX=0.75;entryY=1;entryDx=0;entryDy=0;" edge="1" parent="1" source="CUxQa2ygbQsc2UmDLdxc-87" target="CUxQa2ygbQsc2UmDLdxc-7">
          <mxGeometry relative="1" as="geometry" />
        </mxCell>
        <mxCell id="CUxQa2ygbQsc2UmDLdxc-87" value="total" style="ellipse;whiteSpace=wrap;html=1;fillColor=#dae8fc;strokeColor=#6c8ebf;" vertex="1" parent="1">
          <mxGeometry x="170" y="860" width="90" height="40" as="geometry" />
        </mxCell>
        <mxCell id="CUxQa2ygbQsc2UmDLdxc-95" style="edgeStyle=orthogonalEdgeStyle;rounded=0;orthogonalLoop=1;jettySize=auto;html=1;entryX=1;entryY=0.75;entryDx=0;entryDy=0;" edge="1" parent="1" source="CUxQa2ygbQsc2UmDLdxc-88" target="CUxQa2ygbQsc2UmDLdxc-7">
          <mxGeometry relative="1" as="geometry" />
        </mxCell>
        <mxCell id="CUxQa2ygbQsc2UmDLdxc-88" value="id_cliente" style="ellipse;whiteSpace=wrap;html=1;fillColor=#dae8fc;strokeColor=#6c8ebf;" vertex="1" parent="1">
          <mxGeometry x="200" y="760" width="90" height="40" as="geometry" />
        </mxCell>
        <mxCell id="CUxQa2ygbQsc2UmDLdxc-96" style="edgeStyle=orthogonalEdgeStyle;rounded=0;orthogonalLoop=1;jettySize=auto;html=1;entryX=1;entryY=0.25;entryDx=0;entryDy=0;" edge="1" parent="1" source="CUxQa2ygbQsc2UmDLdxc-89" target="CUxQa2ygbQsc2UmDLdxc-7">
          <mxGeometry relative="1" as="geometry" />
        </mxCell>
        <mxCell id="CUxQa2ygbQsc2UmDLdxc-89" value="id_sucursal" style="ellipse;whiteSpace=wrap;html=1;fillColor=#dae8fc;strokeColor=#6c8ebf;" vertex="1" parent="1">
          <mxGeometry x="200" y="665" width="90" height="40" as="geometry" />
        </mxCell>
        <mxCell id="CUxQa2ygbQsc2UmDLdxc-98" value="id_compra" style="ellipse;whiteSpace=wrap;html=1;fillColor=#dae8fc;strokeColor=#6c8ebf;" vertex="1" parent="1">
          <mxGeometry x="310" y="830" width="90" height="40" as="geometry" />
        </mxCell>
        <mxCell id="CUxQa2ygbQsc2UmDLdxc-106" style="edgeStyle=orthogonalEdgeStyle;rounded=0;orthogonalLoop=1;jettySize=auto;html=1;" edge="1" parent="1" source="CUxQa2ygbQsc2UmDLdxc-99" target="CUxQa2ygbQsc2UmDLdxc-10">
          <mxGeometry relative="1" as="geometry" />
        </mxCell>
        <mxCell id="CUxQa2ygbQsc2UmDLdxc-99" value="fecha" style="ellipse;whiteSpace=wrap;html=1;fillColor=#dae8fc;strokeColor=#6c8ebf;" vertex="1" parent="1">
          <mxGeometry x="430" y="870" width="90" height="40" as="geometry" />
        </mxCell>
        <mxCell id="CUxQa2ygbQsc2UmDLdxc-108" style="edgeStyle=orthogonalEdgeStyle;rounded=0;orthogonalLoop=1;jettySize=auto;html=1;entryX=0.75;entryY=1;entryDx=0;entryDy=0;" edge="1" parent="1" source="CUxQa2ygbQsc2UmDLdxc-100" target="CUxQa2ygbQsc2UmDLdxc-10">
          <mxGeometry relative="1" as="geometry" />
        </mxCell>
        <mxCell id="CUxQa2ygbQsc2UmDLdxc-100" value="id_proveedor" style="ellipse;whiteSpace=wrap;html=1;fillColor=#dae8fc;strokeColor=#6c8ebf;" vertex="1" parent="1">
          <mxGeometry x="580" y="760" width="90" height="40" as="geometry" />
        </mxCell>
        <mxCell id="CUxQa2ygbQsc2UmDLdxc-109" style="edgeStyle=orthogonalEdgeStyle;rounded=0;orthogonalLoop=1;jettySize=auto;html=1;entryX=1;entryY=0.5;entryDx=0;entryDy=0;" edge="1" parent="1" source="CUxQa2ygbQsc2UmDLdxc-101" target="CUxQa2ygbQsc2UmDLdxc-10">
          <mxGeometry relative="1" as="geometry" />
        </mxCell>
        <mxCell id="CUxQa2ygbQsc2UmDLdxc-101" value="id_sucursal" style="ellipse;whiteSpace=wrap;html=1;fillColor=#dae8fc;strokeColor=#6c8ebf;" vertex="1" parent="1">
          <mxGeometry x="570" y="660" width="90" height="40" as="geometry" />
        </mxCell>
        <mxCell id="CUxQa2ygbQsc2UmDLdxc-107" style="edgeStyle=orthogonalEdgeStyle;rounded=0;orthogonalLoop=1;jettySize=auto;html=1;entryX=1;entryY=0.75;entryDx=0;entryDy=0;" edge="1" parent="1" source="CUxQa2ygbQsc2UmDLdxc-102" target="CUxQa2ygbQsc2UmDLdxc-10">
          <mxGeometry relative="1" as="geometry" />
        </mxCell>
        <mxCell id="CUxQa2ygbQsc2UmDLdxc-102" value="total" style="ellipse;whiteSpace=wrap;html=1;fillColor=#dae8fc;strokeColor=#6c8ebf;" vertex="1" parent="1">
          <mxGeometry x="580" y="870" width="90" height="40" as="geometry" />
        </mxCell>
        <mxCell id="CUxQa2ygbQsc2UmDLdxc-124" style="edgeStyle=orthogonalEdgeStyle;rounded=0;orthogonalLoop=1;jettySize=auto;html=1;entryX=0.25;entryY=1;entryDx=0;entryDy=0;" edge="1" parent="1" source="CUxQa2ygbQsc2UmDLdxc-103" target="CUxQa2ygbQsc2UmDLdxc-9">
          <mxGeometry relative="1" as="geometry" />
        </mxCell>
        <mxCell id="CUxQa2ygbQsc2UmDLdxc-103" value="id_marca" style="ellipse;whiteSpace=wrap;html=1;fillColor=#dae8fc;strokeColor=#6c8ebf;" vertex="1" parent="1">
          <mxGeometry x="690" y="810" width="90" height="40" as="geometry" />
        </mxCell>
        <mxCell id="CUxQa2ygbQsc2UmDLdxc-105" style="edgeStyle=orthogonalEdgeStyle;rounded=0;orthogonalLoop=1;jettySize=auto;html=1;entryX=0.134;entryY=1.008;entryDx=0;entryDy=0;entryPerimeter=0;" edge="1" parent="1" source="CUxQa2ygbQsc2UmDLdxc-98" target="CUxQa2ygbQsc2UmDLdxc-10">
          <mxGeometry relative="1" as="geometry" />
        </mxCell>
        <mxCell id="CUxQa2ygbQsc2UmDLdxc-125" style="edgeStyle=orthogonalEdgeStyle;rounded=0;orthogonalLoop=1;jettySize=auto;html=1;entryX=0.5;entryY=1;entryDx=0;entryDy=0;" edge="1" parent="1" source="CUxQa2ygbQsc2UmDLdxc-110" target="CUxQa2ygbQsc2UmDLdxc-9">
          <mxGeometry relative="1" as="geometry">
            <Array as="points">
              <mxPoint x="840" y="743" />
              <mxPoint x="810" y="743" />
            </Array>
          </mxGeometry>
        </mxCell>
        <mxCell id="CUxQa2ygbQsc2UmDLdxc-110" value="id_categoria" style="ellipse;whiteSpace=wrap;html=1;fillColor=#dae8fc;strokeColor=#6c8ebf;" vertex="1" parent="1">
          <mxGeometry x="800" y="810" width="90" height="40" as="geometry" />
        </mxCell>
        <mxCell id="CUxQa2ygbQsc2UmDLdxc-111" value="stock_actual" style="ellipse;whiteSpace=wrap;html=1;fillColor=#dae8fc;strokeColor=#6c8ebf;" vertex="1" parent="1">
          <mxGeometry x="970" y="800" width="90" height="40" as="geometry" />
        </mxCell>
        <mxCell id="CUxQa2ygbQsc2UmDLdxc-121" style="edgeStyle=orthogonalEdgeStyle;rounded=0;orthogonalLoop=1;jettySize=auto;html=1;entryX=1;entryY=0.75;entryDx=0;entryDy=0;" edge="1" parent="1" source="CUxQa2ygbQsc2UmDLdxc-112" target="CUxQa2ygbQsc2UmDLdxc-9">
          <mxGeometry relative="1" as="geometry" />
        </mxCell>
        <mxCell id="CUxQa2ygbQsc2UmDLdxc-112" value="precio_base" style="ellipse;whiteSpace=wrap;html=1;fillColor=#dae8fc;strokeColor=#6c8ebf;" vertex="1" parent="1">
          <mxGeometry x="1040" y="730" width="90" height="40" as="geometry" />
        </mxCell>
        <mxCell id="CUxQa2ygbQsc2UmDLdxc-120" style="edgeStyle=orthogonalEdgeStyle;rounded=0;orthogonalLoop=1;jettySize=auto;html=1;entryX=1;entryY=0.5;entryDx=0;entryDy=0;" edge="1" parent="1" source="CUxQa2ygbQsc2UmDLdxc-113" target="CUxQa2ygbQsc2UmDLdxc-9">
          <mxGeometry relative="1" as="geometry" />
        </mxCell>
        <mxCell id="CUxQa2ygbQsc2UmDLdxc-113" value="codigo_barras" style="ellipse;whiteSpace=wrap;html=1;fillColor=#dae8fc;strokeColor=#6c8ebf;" vertex="1" parent="1">
          <mxGeometry x="1060" y="635" width="90" height="40" as="geometry" />
        </mxCell>
        <mxCell id="CUxQa2ygbQsc2UmDLdxc-119" style="edgeStyle=orthogonalEdgeStyle;rounded=0;orthogonalLoop=1;jettySize=auto;html=1;entryX=1;entryY=0.25;entryDx=0;entryDy=0;" edge="1" parent="1" source="CUxQa2ygbQsc2UmDLdxc-114" target="CUxQa2ygbQsc2UmDLdxc-9">
          <mxGeometry relative="1" as="geometry" />
        </mxCell>
        <mxCell id="CUxQa2ygbQsc2UmDLdxc-114" value="descripcion" style="ellipse;whiteSpace=wrap;html=1;fillColor=#dae8fc;strokeColor=#6c8ebf;" vertex="1" parent="1">
          <mxGeometry x="1040" y="550" width="90" height="40" as="geometry" />
        </mxCell>
        <mxCell id="CUxQa2ygbQsc2UmDLdxc-115" value="nombre" style="ellipse;whiteSpace=wrap;html=1;fillColor=#dae8fc;strokeColor=#6c8ebf;" vertex="1" parent="1">
          <mxGeometry x="1000" y="480" width="90" height="40" as="geometry" />
        </mxCell>
        <mxCell id="CUxQa2ygbQsc2UmDLdxc-117" style="edgeStyle=orthogonalEdgeStyle;rounded=0;orthogonalLoop=1;jettySize=auto;html=1;entryX=0.75;entryY=0;entryDx=0;entryDy=0;" edge="1" parent="1" source="CUxQa2ygbQsc2UmDLdxc-116" target="CUxQa2ygbQsc2UmDLdxc-9">
          <mxGeometry relative="1" as="geometry" />
        </mxCell>
        <mxCell id="CUxQa2ygbQsc2UmDLdxc-116" value="id_producto" style="ellipse;whiteSpace=wrap;html=1;fillColor=#dae8fc;strokeColor=#6c8ebf;" vertex="1" parent="1">
          <mxGeometry x="870" y="470" width="90" height="40" as="geometry" />
        </mxCell>
        <mxCell id="CUxQa2ygbQsc2UmDLdxc-118" style="edgeStyle=orthogonalEdgeStyle;rounded=0;orthogonalLoop=1;jettySize=auto;html=1;entryX=0.915;entryY=-0.001;entryDx=0;entryDy=0;entryPerimeter=0;" edge="1" parent="1" source="CUxQa2ygbQsc2UmDLdxc-115" target="CUxQa2ygbQsc2UmDLdxc-9">
          <mxGeometry relative="1" as="geometry">
            <Array as="points">
              <mxPoint x="1045" y="530" />
              <mxPoint x="860" y="530" />
            </Array>
          </mxGeometry>
        </mxCell>
        <mxCell id="CUxQa2ygbQsc2UmDLdxc-122" style="edgeStyle=orthogonalEdgeStyle;rounded=0;orthogonalLoop=1;jettySize=auto;html=1;entryX=0.934;entryY=0.993;entryDx=0;entryDy=0;entryPerimeter=0;" edge="1" parent="1" source="CUxQa2ygbQsc2UmDLdxc-111" target="CUxQa2ygbQsc2UmDLdxc-9">
          <mxGeometry relative="1" as="geometry">
            <Array as="points">
              <mxPoint x="1015" y="780" />
              <mxPoint x="862" y="780" />
            </Array>
          </mxGeometry>
        </mxCell>
        <mxCell id="CUxQa2ygbQsc2UmDLdxc-128" value="nombre" style="ellipse;whiteSpace=wrap;html=1;fillColor=#dae8fc;strokeColor=#6c8ebf;" vertex="1" parent="1">
          <mxGeometry x="1050" y="190" width="90" height="40" as="geometry" />
        </mxCell>
        <mxCell id="CUxQa2ygbQsc2UmDLdxc-137" style="edgeStyle=orthogonalEdgeStyle;rounded=0;orthogonalLoop=1;jettySize=auto;html=1;entryX=0.25;entryY=0;entryDx=0;entryDy=0;" edge="1" parent="1" source="CUxQa2ygbQsc2UmDLdxc-129" target="CUxQa2ygbQsc2UmDLdxc-21">
          <mxGeometry relative="1" as="geometry" />
        </mxCell>
        <mxCell id="CUxQa2ygbQsc2UmDLdxc-129" value="id_proveedor" style="ellipse;whiteSpace=wrap;html=1;fillColor=#dae8fc;strokeColor=#6c8ebf;" vertex="1" parent="1">
          <mxGeometry x="900" y="180" width="90" height="40" as="geometry" />
        </mxCell>
        <mxCell id="CUxQa2ygbQsc2UmDLdxc-135" style="edgeStyle=orthogonalEdgeStyle;rounded=0;orthogonalLoop=1;jettySize=auto;html=1;entryX=1;entryY=0.25;entryDx=0;entryDy=0;" edge="1" parent="1" source="CUxQa2ygbQsc2UmDLdxc-130" target="CUxQa2ygbQsc2UmDLdxc-21">
          <mxGeometry relative="1" as="geometry" />
        </mxCell>
        <mxCell id="CUxQa2ygbQsc2UmDLdxc-130" value="direccion" style="ellipse;whiteSpace=wrap;html=1;fillColor=#dae8fc;strokeColor=#6c8ebf;" vertex="1" parent="1">
          <mxGeometry x="1150" y="260" width="90" height="40" as="geometry" />
        </mxCell>
        <mxCell id="CUxQa2ygbQsc2UmDLdxc-134" style="edgeStyle=orthogonalEdgeStyle;rounded=0;orthogonalLoop=1;jettySize=auto;html=1;entryX=1;entryY=0.75;entryDx=0;entryDy=0;" edge="1" parent="1" source="CUxQa2ygbQsc2UmDLdxc-131" target="CUxQa2ygbQsc2UmDLdxc-21">
          <mxGeometry relative="1" as="geometry" />
        </mxCell>
        <mxCell id="CUxQa2ygbQsc2UmDLdxc-131" value="telefono" style="ellipse;whiteSpace=wrap;html=1;fillColor=#dae8fc;strokeColor=#6c8ebf;" vertex="1" parent="1">
          <mxGeometry x="1151" y="360" width="90" height="40" as="geometry" />
        </mxCell>
        <mxCell id="CUxQa2ygbQsc2UmDLdxc-132" value="correo" style="ellipse;whiteSpace=wrap;html=1;fillColor=#dae8fc;strokeColor=#6c8ebf;" vertex="1" parent="1">
          <mxGeometry x="960" y="430" width="90" height="40" as="geometry" />
        </mxCell>
        <mxCell id="CUxQa2ygbQsc2UmDLdxc-133" style="edgeStyle=orthogonalEdgeStyle;rounded=0;orthogonalLoop=1;jettySize=auto;html=1;entryX=0.434;entryY=1.053;entryDx=0;entryDy=0;entryPerimeter=0;" edge="1" parent="1" source="CUxQa2ygbQsc2UmDLdxc-132" target="CUxQa2ygbQsc2UmDLdxc-21">
          <mxGeometry relative="1" as="geometry" />
        </mxCell>
        <mxCell id="CUxQa2ygbQsc2UmDLdxc-136" style="edgeStyle=orthogonalEdgeStyle;rounded=0;orthogonalLoop=1;jettySize=auto;html=1;entryX=0.846;entryY=0.008;entryDx=0;entryDy=0;entryPerimeter=0;" edge="1" parent="1" source="CUxQa2ygbQsc2UmDLdxc-128" target="CUxQa2ygbQsc2UmDLdxc-21">
          <mxGeometry relative="1" as="geometry" />
        </mxCell>
        <mxCell id="CUxQa2ygbQsc2UmDLdxc-148" style="edgeStyle=orthogonalEdgeStyle;rounded=0;orthogonalLoop=1;jettySize=auto;html=1;entryX=0.25;entryY=0;entryDx=0;entryDy=0;" edge="1" parent="1" source="CUxQa2ygbQsc2UmDLdxc-138" target="CUxQa2ygbQsc2UmDLdxc-5">
          <mxGeometry relative="1" as="geometry" />
        </mxCell>
        <mxCell id="CUxQa2ygbQsc2UmDLdxc-138" value="cantidad" style="ellipse;whiteSpace=wrap;html=1;fillColor=#dae8fc;strokeColor=#6c8ebf;" vertex="1" parent="1">
          <mxGeometry x="880" y="-220" width="90" height="40" as="geometry" />
        </mxCell>
        <mxCell id="CUxQa2ygbQsc2UmDLdxc-147" style="edgeStyle=orthogonalEdgeStyle;rounded=0;orthogonalLoop=1;jettySize=auto;html=1;entryX=0;entryY=0.25;entryDx=0;entryDy=0;" edge="1" parent="1" source="CUxQa2ygbQsc2UmDLdxc-139" target="CUxQa2ygbQsc2UmDLdxc-5">
          <mxGeometry relative="1" as="geometry" />
        </mxCell>
        <mxCell id="CUxQa2ygbQsc2UmDLdxc-139" value="id_detalle" style="ellipse;whiteSpace=wrap;html=1;fillColor=#dae8fc;strokeColor=#6c8ebf;" vertex="1" parent="1">
          <mxGeometry x="780" y="-140" width="90" height="40" as="geometry" />
        </mxCell>
        <mxCell id="CUxQa2ygbQsc2UmDLdxc-149" style="edgeStyle=orthogonalEdgeStyle;rounded=0;orthogonalLoop=1;jettySize=auto;html=1;entryX=0.5;entryY=0;entryDx=0;entryDy=0;" edge="1" parent="1" source="CUxQa2ygbQsc2UmDLdxc-141" target="CUxQa2ygbQsc2UmDLdxc-5">
          <mxGeometry relative="1" as="geometry">
            <Array as="points">
              <mxPoint x="1055" y="-170" />
              <mxPoint x="940" y="-170" />
              <mxPoint x="940" />
            </Array>
          </mxGeometry>
        </mxCell>
        <mxCell id="CUxQa2ygbQsc2UmDLdxc-141" value="precio_unitario" style="ellipse;whiteSpace=wrap;html=1;fillColor=#dae8fc;strokeColor=#6c8ebf;" vertex="1" parent="1">
          <mxGeometry x="1010" y="-240" width="90" height="40" as="geometry" />
        </mxCell>
        <mxCell id="CUxQa2ygbQsc2UmDLdxc-150" style="edgeStyle=orthogonalEdgeStyle;rounded=0;orthogonalLoop=1;jettySize=auto;html=1;entryX=0.75;entryY=0;entryDx=0;entryDy=0;" edge="1" parent="1" source="CUxQa2ygbQsc2UmDLdxc-142" target="CUxQa2ygbQsc2UmDLdxc-5">
          <mxGeometry relative="1" as="geometry" />
        </mxCell>
        <mxCell id="CUxQa2ygbQsc2UmDLdxc-142" value="id_compra" style="ellipse;whiteSpace=wrap;html=1;fillColor=#dae8fc;strokeColor=#6c8ebf;" vertex="1" parent="1">
          <mxGeometry x="1120" y="-170" width="90" height="40" as="geometry" />
        </mxCell>
        <mxCell id="CUxQa2ygbQsc2UmDLdxc-151" style="edgeStyle=orthogonalEdgeStyle;rounded=0;orthogonalLoop=1;jettySize=auto;html=1;entryX=1;entryY=0.25;entryDx=0;entryDy=0;" edge="1" parent="1" source="CUxQa2ygbQsc2UmDLdxc-143" target="CUxQa2ygbQsc2UmDLdxc-5">
          <mxGeometry relative="1" as="geometry" />
        </mxCell>
        <mxCell id="CUxQa2ygbQsc2UmDLdxc-143" value="id_producto" style="ellipse;whiteSpace=wrap;html=1;fillColor=#dae8fc;strokeColor=#6c8ebf;" vertex="1" parent="1">
          <mxGeometry x="1140" y="-80" width="90" height="40" as="geometry" />
        </mxCell>
        <mxCell id="CUxQa2ygbQsc2UmDLdxc-152" style="edgeStyle=orthogonalEdgeStyle;rounded=0;orthogonalLoop=1;jettySize=auto;html=1;entryX=1;entryY=0.75;entryDx=0;entryDy=0;" edge="1" parent="1" source="CUxQa2ygbQsc2UmDLdxc-144" target="CUxQa2ygbQsc2UmDLdxc-5">
          <mxGeometry relative="1" as="geometry" />
        </mxCell>
        <mxCell id="CUxQa2ygbQsc2UmDLdxc-144" value="descuento_linea" style="ellipse;whiteSpace=wrap;html=1;fillColor=#dae8fc;strokeColor=#6c8ebf;" vertex="1" parent="1">
          <mxGeometry x="1170" width="120" height="40" as="geometry" />
        </mxCell>
        <mxCell id="CUxQa2ygbQsc2UmDLdxc-153" style="edgeStyle=orthogonalEdgeStyle;rounded=0;orthogonalLoop=1;jettySize=auto;html=1;entryX=1;entryY=0.5;entryDx=0;entryDy=0;" edge="1" parent="1" source="CUxQa2ygbQsc2UmDLdxc-145" target="CUxQa2ygbQsc2UmDLdxc-5">
          <mxGeometry relative="1" as="geometry">
            <Array as="points">
              <mxPoint x="1215" y="70" />
              <mxPoint x="1090" y="70" />
              <mxPoint x="1090" y="30" />
            </Array>
          </mxGeometry>
        </mxCell>
        <mxCell id="CUxQa2ygbQsc2UmDLdxc-145" value="id_venta" style="ellipse;whiteSpace=wrap;html=1;fillColor=#dae8fc;strokeColor=#6c8ebf;" vertex="1" parent="1">
          <mxGeometry x="1170" y="90" width="90" height="40" as="geometry" />
        </mxCell>
        <mxCell id="CUxQa2ygbQsc2UmDLdxc-154" style="edgeStyle=orthogonalEdgeStyle;rounded=0;orthogonalLoop=1;jettySize=auto;html=1;entryX=0.75;entryY=1;entryDx=0;entryDy=0;" edge="1" parent="1" source="CUxQa2ygbQsc2UmDLdxc-146" target="CUxQa2ygbQsc2UmDLdxc-5">
          <mxGeometry relative="1" as="geometry">
            <Array as="points">
              <mxPoint x="1095" y="100" />
              <mxPoint x="960" y="100" />
            </Array>
          </mxGeometry>
        </mxCell>
        <mxCell id="CUxQa2ygbQsc2UmDLdxc-146" value="id_producto" style="ellipse;whiteSpace=wrap;html=1;fillColor=#dae8fc;strokeColor=#6c8ebf;" vertex="1" parent="1">
          <mxGeometry x="1050" y="120" width="90" height="40" as="geometry" />
        </mxCell>
      </root>
    </mxGraphModel>
  </diagram>
</mxfile>
